<?xml version="1.0" encoding="iso-8859-1"?>
<!-- Generator: Adobe Illustrator 19.0.0, SVG Export Plug-In . SVG Version: 6.00 Build 0)  -->
<svg version="1.1" id="Capa_1" xmlns="http://www.w3.org/2000/svg" xmlns:xlink="http://www.w3.org/1999/xlink" x="0px" y="0px"
	 viewBox="0 0 480 480" style="enable-background:new 0 0 480 480;" xml:space="preserve">
<g>
	<path style="fill:#78B9EB;" d="M372.568,359.999H272v40l-16-12v28l8,56h208v-16C471.05,402.033,426.534,359.054,372.568,359.999z"
		/>
	<path style="fill:#78B9EB;" d="M240,375.999l-10.64,8h21.28L240,375.999z"/>
	<path style="fill:#78B9EB;" d="M208,399.999v-40H107.432c-53.966-0.945-98.482,42.034-99.432,96v16h208l8-56v-28L208,399.999z"/>
	<path style="fill:#78B9EB;" d="M344,127.999v-120l-56,56l-48-56l-48,56l-56-56v120h8h192H344z"/>
</g>
<g>
	<path style="fill:#1E81CE;" d="M372.568,351.999H304v-32c22.08-0.026,39.974-17.92,40-40v-144c4.418,0,8-3.582,8-8v-120
		c-0.001-4.418-3.583-7.999-8.002-7.998c-2.121,0-4.154,0.843-5.654,2.342l-49.888,49.888l-42.4-49.432
		c-3.083-3.353-8.301-3.573-11.654-0.49c-0.17,0.156-0.333,0.32-0.49,0.49l-42.4,49.432L141.656,2.343
		c-3.125-3.124-8.19-3.123-11.314,0.002C128.843,3.845,128,5.878,128,7.999v120c0,4.418,3.582,8,8,8v144
		c0.026,22.08,17.92,39.974,40,40v32h-68.568C49.08,351.135,1.03,397.649,0,455.999v16c0,4.418,3.582,8,8,8h464c4.418,0,8-3.582,8-8
		v-16C478.97,397.649,430.92,351.135,372.568,351.999z M144,27.311l42.344,42.344c1.568,1.585,3.733,2.434,5.96,2.336
		c2.228-0.086,4.318-1.098,5.768-2.792L240,20.287l41.928,48.912c2.875,3.355,7.925,3.745,11.28,0.87
		c0.154-0.132,0.304-0.271,0.448-0.414L336,27.311v92.688H144V27.311z M152,279.999v-144h176v144c0,13.255-10.745,24-24,24H176
		C162.745,303.999,152,293.254,152,279.999z M192,319.999h96v32h-96V319.999z M260.8,381.599l-0.296-0.216L244.8,369.599
		c-2.844-2.133-6.756-2.133-9.6,0l-15.68,11.76l-0.32,0.24l-3.2,2.4v-16h48v16L260.8,381.599z M232,391.999h16v16h-16L232,391.999z
		 M16,455.999c1.024-49.515,41.914-88.87,91.432-88H200v32c0,4.418,3.582,8,8,8c1.731,0,3.415-0.561,4.8-1.6l3.2-2.4v11.416
		l-6.944,48.584H104v-40H88v40H16V455.999z M225.224,463.999l5.712-40h18.128l5.712,40H225.224z M464,463.999h-72v-40h-16v40
		H270.944L264,415.415v-11.416l3.2,2.4c3.535,2.651,8.549,1.935,11.2-1.6c1.039-1.385,1.6-3.069,1.6-4.8v-32h92.568
		c49.518-0.87,90.408,38.485,91.432,88V463.999z"/>
	<path style="fill:#1E81CE;" d="M284.848,253.655l-11.312-11.312c-18.756,18.717-49.124,18.717-67.88,0l-11.312,11.312
		C219.35,278.614,259.842,278.614,284.848,253.655L284.848,253.655z"/>
</g>
<g>
</g>
<g>
</g>
<g>
</g>
<g>
</g>
<g>
</g>
<g>
</g>
<g>
</g>
<g>
</g>
<g>
</g>
<g>
</g>
<g>
</g>
<g>
</g>
<g>
</g>
<g>
</g>
<g>
</g>
</svg>
